<svg width="211" height="140" viewBox="0 0 211 140" fill="none" xmlns="http://www.w3.org/2000/svg">
<circle cx="205.178" cy="78" r="4.5" stroke="#FFD764" stroke-opacity="0.7"/>
<circle cx="36.1777" cy="39" r="4.5" stroke="#FFD764" stroke-opacity="0.7"/>
<g clip-path="url(#clip0_752_11773)">
<path d="M133.481 17.1278L182.355 101.779C184.147 104.884 185.178 108.483 185.178 112.325C185.178 123.992 175.719 133.452 164.051 133.452H115.178L98.2764 69.9991L115.178 6.54688C123.004 6.54688 129.831 10.8051 133.481 17.1278Z" fill="#525A61"/>
<path d="M96.8741 17.1278L48.0004 101.779C46.2083 104.884 45.1777 108.483 45.1777 112.325C45.1777 123.992 54.6365 133.452 66.3046 133.452H115.178V6.54688C107.352 6.54688 100.525 10.8051 96.8741 17.1278Z" fill="#3B4145"/>
<path d="M175.037 106.004L126.164 21.3531C123.961 17.5362 119.916 15.1278 115.541 15.0039L157.341 125.001H164.051C171.04 125.001 176.727 119.314 176.727 112.325C176.727 110.105 176.141 107.919 175.037 106.004Z" fill="#FFB751"/>
<path d="M166.817 106.005C167.772 107.92 168.276 110.106 168.276 112.326C168.276 119.314 163.372 125.002 157.341 125.002H66.3044C59.3156 125.002 53.6284 119.314 53.6284 112.326C53.6284 110.106 54.2144 107.92 55.3185 106.005L104.192 21.3538C106.457 17.4327 110.665 14.9961 115.178 14.9961C115.299 14.9961 115.42 14.9988 115.541 15.0046C119.296 15.1511 122.764 17.5538 124.654 21.3538L166.817 106.005Z" fill="#FFD764"/>
<path d="M115.178 96.832V110.917C119.068 110.917 122.22 107.764 122.22 103.874C122.22 99.9842 119.068 96.832 115.178 96.832Z" fill="#3B4145"/>
<path d="M115.178 96.832C115.955 96.832 116.586 99.9842 116.586 103.874C116.586 107.765 115.955 110.917 115.178 110.917C111.287 110.917 108.135 107.765 108.135 103.874C108.135 99.9842 111.287 96.832 115.178 96.832Z" fill="#525A61"/>
<path d="M115.178 36.2695V88.3823C119.068 88.3823 122.22 85.2274 122.22 81.34V43.3119C122.22 39.4217 119.068 36.2695 115.178 36.2695Z" fill="#3B4145"/>
<path d="M115.178 36.2695C115.955 36.2695 116.586 39.4217 116.586 43.3119V81.34C116.586 85.2271 115.955 88.3823 115.178 88.3823C111.287 88.3823 108.135 85.2274 108.135 81.34V43.3119C108.135 39.4217 111.287 36.2695 115.178 36.2695Z" fill="#525A61"/>
</g>
<path d="M21.5789 89.1356L12.9267 80.4835L13.8671 79.543L22.5193 88.1952L21.5789 89.1356ZM13.7418 89.2401L12.8431 88.3415L21.7251 79.4594L22.6238 80.3581L13.7418 89.2401Z" fill="#FFD764" fill-opacity="0.7"/>
<path d="M191.579 39.1356L182.927 30.4835L183.867 29.543L192.519 38.1952L191.579 39.1356ZM183.742 39.2401L182.843 38.3415L191.725 29.4594L192.624 30.3581L183.742 39.2401Z" fill="#FFD764" fill-opacity="0.7"/>
<defs>
<clipPath id="clip0_752_11773">
<rect width="140" height="140" fill="white" transform="translate(45.1777)"/>
</clipPath>
</defs>
</svg>
